<svg width="30" height="30" viewBox="0 0 30 30" fill="none" xmlns="http://www.w3.org/2000/svg">
<path d="M18.7656 13.4844C17.6611 13.4844 16.7656 12.5889 16.7656 11.4844V3.64062C16.7656 2.73453 16.0311 2 15.125 2V2C14.2189 2 13.4844 2.73453 13.4844 3.64063V11.4844C13.4844 12.5889 12.5889 13.4844 11.4844 13.4844H3.64062C2.73453 13.4844 2 14.2189 2 15.125V15.125C2 16.0311 2.73453 16.7656 3.64063 16.7656H11.4844C12.5889 16.7656 13.4844 17.6611 13.4844 18.7656V26.6094C13.4844 27.5155 14.2189 28.25 15.125 28.25V28.25C16.0311 28.25 16.7656 27.5155 16.7656 26.6094V18.7656C16.7656 17.6611 17.6611 16.7656 18.7656 16.7656H26.6094C27.5155 16.7656 28.25 16.0311 28.25 15.125V15.125C28.25 14.2189 27.5155 13.4844 26.6094 13.4844H18.7656Z" fill="#BBC8FF"/>
</svg>
