<svg width="30" height="30" viewBox="0 0 30 30" fill="none" xmlns="http://www.w3.org/2000/svg">
<path d="M15 5C9.47768 5 5 9.47768 5 15C5 20.5223 9.47768 25 15 25C20.5223 25 25 20.5223 25 15C25 9.47768 20.5223 5 15 5ZM18.692 18.7991L17.2188 18.7924L15 16.1473L12.7835 18.7902L11.308 18.7969C11.2098 18.7969 11.1295 18.7187 11.1295 18.6183C11.1295 18.5759 11.1451 18.5357 11.1719 18.5022L14.0759 15.0424L11.1719 11.5848C11.1449 11.5521 11.1299 11.5111 11.1295 11.4687C11.1295 11.3705 11.2098 11.2902 11.308 11.2902L12.7835 11.2969L15 13.942L17.2165 11.2991L18.6897 11.2924C18.7879 11.2924 18.8683 11.3705 18.8683 11.471C18.8683 11.5134 18.8527 11.5536 18.8259 11.5871L15.9263 15.0446L18.8281 18.5045C18.8549 18.5379 18.8705 18.5781 18.8705 18.6205C18.8705 18.7188 18.7902 18.7991 18.692 18.7991Z" fill="#343A40"/>
</svg>
